<svg id="图层_1" data-name="图层 1" xmlns="http://www.w3.org/2000/svg" viewBox="0 0 94 30"><defs><style>.cls-1{fill:#fff;}</style></defs><title>box logo</title><path class="cls-1" d="M0,0H17.27q4.32,0,6.63,2.14a6.92,6.92,0,0,1,2.31,5.29A6.68,6.68,0,0,1,24.56,12a7.34,7.34,0,0,1-3.22,2,8.36,8.36,0,0,1,4.74,2.66,7.31,7.31,0,0,1,1.52,4.74,8.15,8.15,0,0,1-1.08,4.17,8,8,0,0,1-3,2.93,9.75,9.75,0,0,1-3.5,1,40.33,40.33,0,0,1-4.13.41H0ZM7.76,11.71h5.56a4.61,4.61,0,0,0,3-.74,2.71,2.71,0,0,0,.85-2.15,2.55,2.55,0,0,0-.85-2A4.54,4.54,0,0,0,13.38,6H7.76Zm0,11.73H14a5.17,5.17,0,0,0,3.36-.85,2.85,2.85,0,0,0,1-2.27,2.63,2.63,0,0,0-1-2.13,5.41,5.41,0,0,0-3.39-.8H7.76Z"/><path class="cls-1" d="M63.66,0h9.78l5.09,9.18L83.48,0h9.68L84.21,14.46,94,29.85H84l-5.67-9.59-5.67,9.59H62.76L72.67,14.3Z"/><path class="cls-1" d="M57.8,16.67v2.19a1.46,1.46,0,1,1-2.91,0V16.68H53a7,7,0,0,1-1.78,3.22,6.85,6.85,0,0,1-9.79,0,7.11,7.11,0,0,1,0-9.95,6.86,6.86,0,0,1,9.8,0A7,7,0,0,1,53,13.17l8.19,0a14.93,14.93,0,1,0,0,3.52H57.8Z"/><circle class="cls-1" cx="46.34" cy="14.95" r="2.57"/></svg>